<?xml version="1.0" encoding="UTF-8" standalone="no"?>
<!-- Created with Inkscape (http://www.inkscape.org/) -->

<svg
   version="1.1"
   id="svg2"
   width="793.70135"
   height="1122.52"
   viewBox="0 0 793.70135 1122.52"
   sodipodi:docname="samsung.ai"
   xmlns:inkscape="http://www.inkscape.org/namespaces/inkscape"
   xmlns:sodipodi="http://sodipodi.sourceforge.net/DTD/sodipodi-0.dtd"
   xmlns="http://www.w3.org/2000/svg"
   xmlns:svg="http://www.w3.org/2000/svg">
  <defs
     id="defs6">
    <clipPath
       clipPathUnits="userSpaceOnUse"
       id="clipPath18">
      <path
         d="M 0,841.89 H 595.276 V 0 H 0 Z"
         id="path16" />
    </clipPath>
  </defs>
  <sodipodi:namedview
     id="namedview4"
     pagecolor="#ffffff"
     bordercolor="#000000"
     borderopacity="0.25"
     inkscape:showpageshadow="2"
     inkscape:pageopacity="0.0"
     inkscape:pagecheckerboard="0"
     inkscape:deskcolor="#d1d1d1" />
  <g
     id="g8"
     inkscape:groupmode="layer"
     inkscape:label="samsung"
     transform="matrix(1.3333333,0,0,-1.3333333,0,1122.52)">
    <path
       d="M 402.333,250.738 H 211.424 v 397.98 h 190.909 z"
       style="fill:#ffffff;fill-opacity:1;fill-rule:nonzero;stroke:#231f20;stroke-width:1;stroke-linecap:butt;stroke-linejoin:miter;stroke-miterlimit:10;stroke-dasharray:none;stroke-opacity:1"
       id="path10" />
    <g
       id="g12">
      <g
         id="g14"
         clip-path="url(#clipPath18)">
        <g
           id="g20"
           transform="translate(265.3802,615.8539)">
          <path
             d="m 0,0 c 0,-10.483 -8.498,-18.982 -18.982,-18.982 -10.483,0 -18.981,8.499 -18.981,18.982 0,10.483 8.498,18.982 18.981,18.982 C -8.498,18.982 0,10.483 0,0 Z"
             style="fill:none;stroke:#757779;stroke-width:0.75;stroke-linecap:butt;stroke-linejoin:miter;stroke-miterlimit:10;stroke-dasharray:none;stroke-opacity:1"
             id="path22" />
        </g>
        <g
           id="g24"
           transform="translate(265.3802,570.5967)">
          <path
             d="m 0,0 c 0,-10.483 -8.498,-18.982 -18.982,-18.982 -10.483,0 -18.981,8.499 -18.981,18.982 0,10.483 8.498,18.982 18.981,18.982 C -8.498,18.982 0,10.483 0,0 Z"
             style="fill:none;stroke:#757779;stroke-width:0.75;stroke-linecap:butt;stroke-linejoin:miter;stroke-miterlimit:10;stroke-dasharray:none;stroke-opacity:1"
             id="path26" />
        </g>
        <g
           id="g28"
           transform="translate(299.5426,614.9834)">
          <path
             d="m 0,0 c 0,-6.439 -5.22,-11.66 -11.66,-11.66 -6.439,0 -11.659,5.221 -11.659,11.66 0,6.439 5.22,11.66 11.659,11.66 C -5.22,11.66 0,6.439 0,0 Z"
             style="fill:none;stroke:#757779;stroke-width:0.75;stroke-linecap:butt;stroke-linejoin:miter;stroke-miterlimit:10;stroke-dasharray:none;stroke-opacity:1"
             id="path30" />
        </g>
        <g
           id="g32"
           transform="translate(299.5426,570.5967)">
          <path
             d="m 0,0 c 0,-6.439 -5.22,-11.66 -11.66,-11.66 -6.439,0 -11.659,5.221 -11.659,11.66 0,6.439 5.22,11.66 11.659,11.66 C -5.22,11.66 0,6.439 0,0 Z"
             style="fill:none;stroke:#757779;stroke-width:0.75;stroke-linecap:butt;stroke-linejoin:miter;stroke-miterlimit:10;stroke-dasharray:none;stroke-opacity:1"
             id="path34" />
        </g>
        <g
           id="g36"
           transform="translate(297.6378,614.9834)">
          <path
             d="m 0,0 c 0,-5.387 -4.367,-9.755 -9.755,-9.755 -5.387,0 -9.755,4.368 -9.755,9.755 0,5.387 4.368,9.755 9.755,9.755 C -4.367,9.755 0,5.387 0,0"
             style="fill:#231f20;fill-opacity:1;fill-rule:nonzero;stroke:none"
             id="path38" />
        </g>
        <g
           id="g40"
           transform="translate(297.6378,570.5967)">
          <path
             d="m 0,0 c 0,-5.387 -4.367,-9.755 -9.755,-9.755 -5.387,0 -9.755,4.368 -9.755,9.755 0,5.387 4.368,9.755 9.755,9.755 C -4.367,9.755 0,5.387 0,0"
             style="fill:#231f20;fill-opacity:1;fill-rule:nonzero;stroke:none"
             id="path42" />
        </g>
        <g
           id="g44"
           transform="translate(262.426,615.8539)">
          <path
             d="m 0,0 c 0,-8.852 -7.176,-16.027 -16.027,-16.027 -8.852,0 -16.028,7.175 -16.028,16.027 0,8.852 7.176,16.027 16.028,16.027 C -7.176,16.027 0,8.852 0,0"
             style="fill:#231f20;fill-opacity:1;fill-rule:nonzero;stroke:none"
             id="path46" />
        </g>
        <g
           id="g48"
           transform="translate(263.2965,525.3396)">
          <path
             d="m 0,0 c 0,-9.332 -7.565,-16.898 -16.898,-16.898 -9.332,0 -16.898,7.566 -16.898,16.898 0,9.332 7.566,16.898 16.898,16.898 C -7.565,16.898 0,9.332 0,0"
             style="fill:#231f20;fill-opacity:1;fill-rule:nonzero;stroke:none"
             id="path50" />
        </g>
        <g
           id="g52"
           transform="translate(265.3802,525.3396)">
          <path
             d="m 0,0 c 0,-10.483 -8.498,-18.982 -18.982,-18.982 -10.483,0 -18.981,8.499 -18.981,18.982 0,10.483 8.498,18.982 18.981,18.982 C -8.498,18.982 0,10.483 0,0 Z"
             style="fill:none;stroke:#757779;stroke-width:0.75;stroke-linecap:butt;stroke-linejoin:miter;stroke-miterlimit:10;stroke-dasharray:none;stroke-opacity:1"
             id="path54" />
        </g>
        <g
           id="g56"
           transform="translate(262.426,570.5967)">
          <path
             d="m 0,0 c 0,-8.852 -7.176,-16.027 -16.027,-16.027 -8.852,0 -16.028,7.175 -16.028,16.027 0,8.852 7.176,16.027 16.028,16.027 C -7.176,16.027 0,8.852 0,0"
             style="fill:#231f20;fill-opacity:1;fill-rule:nonzero;stroke:none"
             id="path58" />
        </g>
        <g
           id="g60"
           transform="translate(262.426,570.5967)">
          <path
             d="m 0,0 c 0,-8.852 -7.176,-16.027 -16.027,-16.027 -8.852,0 -16.028,7.175 -16.028,16.027 0,8.852 7.176,16.027 16.028,16.027 C -7.176,16.027 0,8.852 0,0 Z"
             style="fill:none;stroke:#231f20;stroke-width:0.75;stroke-linecap:butt;stroke-linejoin:miter;stroke-miterlimit:10;stroke-dasharray:none;stroke-opacity:1"
             id="path62" />
        </g>
        <g
           id="g64"
           transform="translate(292.2862,592.79)">
          <path
             d="m 0,0 c 0,-2.432 -1.971,-4.403 -4.403,-4.403 -2.432,0 -4.403,1.971 -4.403,4.403 0,2.432 1.971,4.403 4.403,4.403 C -1.971,4.403 0,2.432 0,0"
             style="fill:#fdf8e7;fill-opacity:1;fill-rule:nonzero;stroke:none"
             id="path66" />
        </g>
        <g
           id="g68"
           transform="translate(292.2862,592.79)">
          <path
             d="m 0,0 c 0,-2.432 -1.971,-4.403 -4.403,-4.403 -2.432,0 -4.403,1.971 -4.403,4.403 0,2.432 1.971,4.403 4.403,4.403 C -1.971,4.403 0,2.432 0,0 Z"
             style="fill:none;stroke:#939598;stroke-width:0.5;stroke-linecap:butt;stroke-linejoin:miter;stroke-miterlimit:10;stroke-dasharray:none;stroke-opacity:1"
             id="path70" />
        </g>
        <g
           id="g72"
           transform="translate(290.4893,592.79)">
          <path
             d="m 0,0 c 0,-1.202 -1.167,-2.177 -2.606,-2.177 -1.44,0 -2.607,0.975 -2.607,2.177 0,1.202 1.167,2.177 2.607,2.177 C -1.167,2.177 0,1.202 0,0"
             style="fill:#fef6cd;fill-opacity:1;fill-rule:nonzero;stroke:none"
             id="path74" />
        </g>
        <path
           d="m 211.424,498.528 h -2.297 v -25.872 h 2.297 z"
           style="fill:#ffffff;fill-opacity:1;fill-rule:nonzero;stroke:#231f20;stroke-width:1;stroke-linecap:butt;stroke-linejoin:miter;stroke-miterlimit:10;stroke-dasharray:none;stroke-opacity:1"
           id="path76" />
        <path
           d="m 211.424,573.252 h -2.297 v -50.723 h 2.297 z"
           style="fill:#ffffff;fill-opacity:1;fill-rule:nonzero;stroke:#231f20;stroke-width:1;stroke-linecap:butt;stroke-linejoin:miter;stroke-miterlimit:10;stroke-dasharray:none;stroke-opacity:1"
           id="path78" />
      </g>
    </g>
  </g>
</svg>
