<svg xmlns="http://www.w3.org/2000/svg" xmlns:v="https://svgstorm.com"
viewBox = "0 0 278 542"
width="278"
height="542">
<g fill="#000000" fill-opacity="0.00" stroke="None">
<path d="
M 0.00 542.00 
L 278.00 542.00
L 278.00 0.00
L 0.00 0.00
L 0.00 542.00
M 260.00 32.00 
C 259.96 32.50 260.00 33.00 260.00 33.00
C 262.33 50.76 260.34 70.49 261.00 89.00
C 261.00 93.33 261.00 97.67 261.00 102.00
C 260.33 119.50 262.33 138.32 260.00 155.00
C 260.00 193.33 260.00 231.67 260.00 270.00
C 260.00 291.00 260.00 312.00 260.00 333.00
C 257.14 329.40 260.88 322.53 258.00 319.00
C 258.00 320.00 258.00 321.00 258.00 322.00
C 258.00 328.33 258.00 334.67 258.00 341.00
C 260.81 338.40 260.64 344.97 258.00 345.00
C 257.43 359.71 258.85 375.03 258.00 389.00
C 260.26 393.75 258.38 400.49 259.00 406.00
C 259.00 408.33 259.00 410.67 259.00 413.00
C 261.33 430.43 259.34 449.82 260.00 468.00
C 260.00 477.33 260.00 486.67 260.00 496.00
C 260.00 498.67 260.00 501.33 260.00 504.00
C 258.88 515.63 249.39 527.61 237.00 528.00
C 236.50 527.97 236.00 528.00 236.00 528.00
C 229.33 529.65 219.78 531.37 213.00 529.00
C 210.97 530.52 208.04 530.29 206.00 529.00
C 199.91 531.29 191.84 529.37 185.00 530.00
C 184.50 530.00 183.50 530.00 183.00 530.00
C 167.50 529.33 150.68 531.33 136.00 529.00
C 134.67 529.00 133.33 529.00 132.00 529.00
C 114.57 531.33 95.18 529.34 77.00 530.00
C 67.67 530.00 58.33 530.00 49.00 530.00
C 46.58 530.44 41.65 530.99 39.00 529.00
C 33.42 529.76 28.63 527.53 24.00 525.00
C 18.88 521.65 13.20 517.29 12.00 511.00
C 11.98 510.50 12.00 510.00 12.00 510.00
C 4.33 493.69 11.91 474.58 8.22 455.78 C 10.00 371.84 7.93 283.39 8.80 208.75 C 8.18 193.33 10.07 172.69 8.22 155.78 C 10.41 138.67 6.97 118.14 10.00 102.00
C 9.12 100.28 9.25 98.80 10.00 97.00
C 8.52 76.73 7.74 56.17 10.00 37.00
C 10.00 36.50 10.00 36.00 10.00 36.00
C 11.16 11.16 41.16 7.43 62.00 10.00
C 67.00 10.00 72.00 10.00 77.00 10.00
C 80.09 7.81 85.16 9.57 89.00 9.00
C 121.33 9.00 153.67 9.00 186.00 9.00 C 211.14 11.63 253.74 -1.97 260.00 32.00 Z"/>
</g>
<g fill="#FBE4E4" fill-opacity="0.02" stroke="None">
<path d="
M 77.00 10.00 
C 81.00 10.00 85.00 10.00 89.00 10.00
C 88.75 9.73 89.00 9.00 89.00 9.00
C 85.16 9.57 80.09 7.81 77.00 10.00 Z"/>
</g>
<g fill="#F6E0DC" fill-opacity="0.20" stroke="None">
<path d="
M 89.00 10.00 
C 90.00 10.00 91.00 10.00 92.00 10.00
C 123.00 10.00 154.00 10.00 185.00 10.00 C 210.48 13.01 246.81 -0.47 257.00 29.00
C 258.29 29.44 259.21 30.58 259.00 32.00
C 259.04 32.13 260.00 32.00 260.00 32.00
C 253.74 -1.97 211.14 11.63 186.00 9.00 C 153.67 9.00 121.33 9.00 89.00 9.00
C 89.00 9.00 88.75 9.73 89.00 10.00 Z"/>
</g>
<g fill="#F3E0DE" fill-opacity="0.05" stroke="None">
<path d="
M 10.00 36.00 
C 11.10 35.97 10.81 34.66 11.00 34.00
C 13.26 24.32 21.14 13.36 32.00 13.00
C 40.71 8.89 53.03 12.85 62.00 10.00
C 41.16 7.43 11.16 11.16 10.00 36.00 Z"/>
</g>
<g fill="#C6A6A1" fill-opacity="0.30" stroke="None">
<path d="
M 32.00 13.00 
C 45.66 11.94 58.78 12.25 73.00 12.00
C 73.47 10.02 76.60 12.11 77.00 10.00
C 72.00 10.00 67.00 10.00 62.00 10.00
C 53.03 12.85 40.71 8.89 32.00 13.00 Z"/>
</g>
<g fill="#C8ABA7" fill-opacity="0.63" stroke="None">
<path d="
M 73.00 12.00 
C 79.16 11.06 87.15 14.11 92.00 10.00
C 91.00 10.00 90.00 10.00 89.00 10.00
C 85.00 10.00 81.00 10.00 77.00 10.00
C 76.60 12.11 73.47 10.02 73.00 12.00 Z"/>
</g>
<g fill="#DAC0BB" fill-opacity="0.99" stroke="None">
<path d="
M 73.00 12.00 
C 58.78 12.25 45.66 11.94 32.00 13.00
C 21.14 13.36 13.26 24.32 11.00 34.00
C 11.02 34.20 11.78 34.70 12.00 35.00
C 14.33 55.76 12.34 78.49 13.00 100.00 C 14.25 121.15 10.45 143.92 15.00 164.00
C 33.33 164.00 51.67 164.00 70.00 164.00 C 91.39 165.64 85.07 138.02 86.00 124.00 C 86.00 105.67 86.00 87.33 86.00 69.00 C 84.71 51.21 88.60 31.69 84.00 15.00
C 114.38 10.35 147.55 14.32 179.00 13.00 C 205.19 16.50 246.80 1.29 257.00 33.00
C 257.00 31.67 257.00 30.33 257.00 29.00
C 246.81 -0.47 210.48 13.01 185.00 10.00 C 154.00 10.00 123.00 10.00 92.00 10.00
C 87.15 14.11 79.16 11.06 73.00 12.00
M 85.00 17.00 
C 85.00 60.67 85.00 104.33 85.00 148.00
C 83.33 105.40 83.33 59.53 85.00 17.00
M 59.00 30.00 
C 79.09 36.04 67.61 68.48 47.98 61.02 C 26.64 55.74 37.63 22.85 59.00 30.00
M 56.00 73.00 
C 77.29 75.62 71.26 109.03 50.33 105.67 C 28.18 103.18 34.56 68.58 56.00 73.00
M 58.00 115.00 
C 73.84 116.99 72.90 141.85 58.00 145.00
C 55.47 148.18 49.63 147.30 47.00 145.00
C 32.18 142.07 32.55 117.50 48.00 115.00
C 50.28 113.46 55.79 113.28 58.00 115.00 Z"/>
</g>
<g fill="#F3C5BD" fill-opacity="1.00" stroke="None">
<path d="
M 15.00 164.00 
C 10.46 169.09 14.24 180.49 13.00 188.00 C 13.00 287.00 13.00 386.00 13.00 485.00 C 13.29 493.37 11.80 502.14 15.32 509.68 C 15.83 514.33 26.81 522.18 23.00 523.00
C 23.13 523.80 24.09 524.11 24.00 525.00
C 28.63 527.53 33.42 529.76 39.00 529.00
C 38.44 527.73 36.15 527.75 36.00 526.00
C 71.18 528.25 107.40 526.39 143.00 527.00 C 177.54 524.90 214.53 531.85 247.00 522.00
C 252.47 522.83 255.22 514.22 257.00 510.00
C 257.67 484.83 255.67 458.35 258.00 434.00
C 258.00 424.67 258.00 415.33 258.00 406.00
C 258.00 400.33 258.00 394.67 258.00 389.00
C 258.85 375.03 257.43 359.71 258.00 345.00
C 258.00 343.67 258.00 342.33 258.00 341.00
C 258.00 334.67 258.00 328.33 258.00 322.00
C 255.67 263.24 257.67 202.52 257.00 143.00
C 257.00 128.00 257.00 113.00 257.00 98.00
C 257.00 86.00 257.00 74.00 257.00 62.00
C 257.00 52.33 257.00 42.67 257.00 33.00
C 246.80 1.29 205.19 16.50 179.00 13.00 C 147.55 14.32 114.38 10.35 84.00 15.00
C 88.60 31.69 84.71 51.21 86.00 69.00 C 86.00 87.33 86.00 105.67 86.00 124.00 C 85.07 138.02 91.39 165.64 70.00 164.00 C 51.67 164.00 33.33 164.00 15.00 164.00
M 106.00 41.00 
C 111.53 46.34 106.08 56.02 98.78 51.22 C 91.48 47.51 99.39 37.93 106.00 41.00 Z"/>
</g>
<g fill="#C19C96" fill-opacity="0.99" stroke="None">
<path d="
M 85.00 17.00 
C 83.33 59.53 83.33 105.40 85.00 148.00
C 85.00 104.33 85.00 60.67 85.00 17.00 Z"/>
</g>
<g fill="#D1ABA8" fill-opacity="0.73" stroke="None">
<path d="
M 257.00 33.00 
C 257.00 42.67 257.00 52.33 257.00 62.00
C 261.26 62.83 257.95 52.53 259.00 49.00 C 259.00 43.33 259.00 37.67 259.00 32.00
C 259.21 30.58 258.29 29.44 257.00 29.00
C 257.00 30.33 257.00 31.67 257.00 33.00 Z"/>
</g>
<g fill="#1F1B1C" fill-opacity="1.00" stroke="None">
<path d="
M 59.00 30.00 
C 37.63 22.85 26.64 55.74 47.98 61.02 C 67.61 68.48 79.09 36.04 59.00 30.00
M 53.00 32.00 
C 70.54 29.68 72.18 61.16 53.00 59.00 C 33.56 61.33 34.58 30.62 53.00 32.00 Z"/>
</g>
<g fill="#1A2228" fill-opacity="1.00" stroke="None">
<path d="
M 53.00 32.00 
C 34.58 30.62 33.56 61.33 53.00 59.00 C 72.18 61.16 70.54 29.68 53.00 32.00
M 58.00 43.00 
C 55.39 44.56 49.54 44.72 47.00 43.00
C 49.59 40.00 55.19 40.27 58.00 43.00
M 58.00 48.00 
C 55.34 51.54 50.58 49.37 47.00 49.00
C 47.77 45.51 55.67 46.66 58.00 48.00 Z"/>
</g>
<g fill="#D2B0AC" fill-opacity="0.47" stroke="None">
<path d="
M 257.00 62.00 
C 257.00 74.00 257.00 86.00 257.00 98.00
C 259.13 100.43 257.47 104.82 258.00 108.00
C 260.88 104.07 257.10 96.86 260.00 93.00
C 260.00 91.67 260.00 90.33 260.00 89.00
C 260.00 70.33 260.00 51.67 260.00 33.00
C 260.00 33.00 259.96 32.50 260.00 32.00
C 260.00 32.00 259.04 32.13 259.00 32.00
C 259.00 37.67 259.00 43.33 259.00 49.00 C 257.95 52.53 261.26 62.83 257.00 62.00 Z"/>
</g>
<g fill="#EEDDCC" fill-opacity="0.06" stroke="None">
<path d="
M 260.00 89.00 
C 260.13 88.78 261.00 89.00 261.00 89.00
C 260.34 70.49 262.33 50.76 260.00 33.00
C 260.00 51.67 260.00 70.33 260.00 89.00 Z"/>
</g>
<g fill="#CCB1AD" fill-opacity="0.64" stroke="None">
<path d="
M 10.00 36.00 
C 10.00 36.00 10.00 36.50 10.00 37.00
C 10.00 57.00 10.00 77.00 10.00 97.00
C 9.25 98.80 9.12 100.28 10.00 102.00
C 10.00 114.00 10.00 126.00 10.00 138.00
C 10.00 137.96 11.00 138.00 11.00 138.00
C 11.16 103.62 10.39 69.02 12.00 35.00
C 11.78 34.70 11.02 34.20 11.00 34.00
C 10.81 34.66 11.10 35.97 10.00 36.00 Z"/>
</g>
<g fill="#C5A29D" fill-opacity="0.99" stroke="None">
<path d="
M 11.00 138.00 
C 10.33 255.84 12.33 374.99 10.00 492.00
C 9.99 497.85 9.49 503.81 12.00 509.00
C 15.71 511.53 17.95 517.62 22.00 521.00
C 22.13 521.80 23.09 522.11 23.00 523.00
C 26.81 522.18 15.83 514.33 15.32 509.68 C 11.80 502.14 13.29 493.37 13.00 485.00 C 13.00 386.00 13.00 287.00 13.00 188.00 C 14.24 180.49 10.46 169.09 15.00 164.00
C 10.45 143.92 14.25 121.15 13.00 100.00 C 12.34 78.49 14.33 55.76 12.00 35.00
C 10.39 69.02 11.16 103.62 11.00 138.00 Z"/>
</g>
<g fill="#F2D5D5" fill-opacity="0.03" stroke="None">
<path d="
M 10.00 97.00 
C 10.00 77.00 10.00 57.00 10.00 37.00
C 7.74 56.17 8.52 76.73 10.00 97.00 Z"/>
</g>
<g fill="#645E5F" fill-opacity="1.00" stroke="None">
<path d="
M 58.00 43.00 
C 55.19 40.27 49.59 40.00 47.00 43.00
C 49.54 44.72 55.39 44.56 58.00 43.00 Z"/>
</g>
<g fill="#F0ECEA" fill-opacity="1.00" stroke="None">
<path d="
M 106.00 41.00 
C 99.39 37.93 91.48 47.51 98.78 51.22 C 106.08 56.02 111.53 46.34 106.00 41.00 Z"/>
</g>
<g fill="#676164" fill-opacity="1.00" stroke="None">
<path d="
M 58.00 48.00 
C 55.67 46.66 47.77 45.51 47.00 49.00
C 50.58 49.37 55.34 51.54 58.00 48.00 Z"/>
</g>
<g fill="#211E1F" fill-opacity="1.00" stroke="None">
<path d="
M 56.00 73.00 
C 34.56 68.58 28.18 103.18 50.33 105.67 C 71.26 109.03 77.29 75.62 56.00 73.00
M 53.00 75.00 
C 71.42 74.49 70.90 104.50 52.00 103.00 C 33.22 102.81 35.18 75.26 53.00 75.00 Z"/>
</g>
<g fill="#1B232B" fill-opacity="1.00" stroke="None">
<path d="
M 53.00 75.00 
C 35.18 75.26 33.22 102.81 52.00 103.00 C 70.90 104.50 71.42 74.49 53.00 75.00
M 62.00 91.00 
C 59.18 93.15 56.89 97.39 50.92 96.06 C 33.59 87.63 61.96 73.31 62.00 91.00 Z"/>
</g>
<g fill="#0D172B" fill-opacity="1.00" stroke="None">
<path d="
M 62.00 91.00 
C 61.96 73.31 33.59 87.63 50.92 96.06 C 56.89 97.39 59.18 93.15 62.00 91.00
M 55.00 86.00 
C 50.92 90.78 48.88 82.46 55.00 86.00
M 52.00 90.00 
C 52.46 89.87 53.00 90.00 53.00 90.00
C 60.28 94.25 44.71 94.34 52.00 90.00 Z"/>
</g>
<g fill="#666777" fill-opacity="1.00" stroke="None">
<path d="
M 55.00 86.00 
C 48.88 82.46 50.92 90.78 55.00 86.00 Z"/>
</g>
<g fill="#F7D1D1" fill-opacity="0.03" stroke="None">
<path d="
M 260.00 93.00 
C 260.00 96.00 260.00 99.00 260.00 102.00
C 260.00 101.96 261.00 102.00 261.00 102.00
C 261.00 97.67 261.00 93.33 261.00 89.00
C 261.00 89.00 260.13 88.78 260.00 89.00
C 260.00 90.33 260.00 91.67 260.00 93.00 Z"/>
</g>
<g fill="#676C87" fill-opacity="1.00" stroke="None">
<path d="
M 53.00 90.00 
C 53.57 90.94 54.15 91.82 54.00 93.00
C 51.47 93.79 50.46 91.79 52.00 90.00
C 44.71 94.34 60.28 94.25 53.00 90.00 Z"/>
</g>
<g fill="#B3AAAA" fill-opacity="1.00" stroke="None">
<path d="
M 53.00 90.00 
C 53.00 90.00 52.46 89.87 52.00 90.00
C 50.46 91.79 51.47 93.79 54.00 93.00
C 54.15 91.82 53.57 90.94 53.00 90.00 Z"/>
</g>
<g fill="#CCAEA8" fill-opacity="0.17" stroke="None">
<path d="
M 258.00 108.00 
C 258.00 109.00 258.00 110.00 258.00 111.00
C 258.80 110.87 259.11 109.91 260.00 110.00
C 260.00 107.33 260.00 104.67 260.00 102.00
C 260.00 99.00 260.00 96.00 260.00 93.00
C 257.10 96.86 260.88 104.07 258.00 108.00 Z"/>
</g>
<g fill="#D1A9A4" fill-opacity="0.60" stroke="None">
<path d="
M 257.00 143.00 
C 259.32 133.24 257.35 121.51 258.00 111.00
C 258.00 110.00 258.00 109.00 258.00 108.00
C 257.47 104.82 259.13 100.43 257.00 98.00
C 257.00 113.00 257.00 128.00 257.00 143.00 Z"/>
</g>
<g fill="#F5DDD8" fill-opacity="0.08" stroke="None">
<path d="
M 12.00 510.00 
C 12.00 509.50 12.00 509.00 12.00 509.00
C 9.49 503.81 9.99 497.85 10.00 492.00
C 10.00 374.00 10.00 256.00 10.00 138.00
C 10.00 126.00 10.00 114.00 10.00 102.00
C 6.97 118.14 10.41 138.67 8.22 155.78 C 10.07 172.69 8.18 193.33 8.80 208.75 C 7.93 283.39 10.00 371.84 8.22 455.78 C 11.91 474.58 4.33 493.69 12.00 510.00 Z"/>
</g>
<g fill="#FEFDFD" fill-opacity="0.01" stroke="None">
<path d="
M 260.00 110.00 
C 260.78 114.45 258.56 118.43 260.00 122.00
C 260.00 133.00 260.00 144.00 260.00 155.00
C 262.33 138.32 260.33 119.50 261.00 102.00
C 261.00 102.00 260.00 101.96 260.00 102.00
C 260.00 104.67 260.00 107.33 260.00 110.00 Z"/>
</g>
<g fill="#C9A39E" fill-opacity="0.31" stroke="None">
<path d="
M 258.00 111.00 
C 257.35 121.51 259.32 133.24 257.00 143.00
C 257.67 202.52 255.67 263.24 258.00 322.00
C 258.00 321.00 258.00 320.00 258.00 319.00
C 258.00 310.67 258.00 302.33 258.00 294.00
C 260.13 237.12 257.60 178.41 260.00 122.00
C 258.56 118.43 260.78 114.45 260.00 110.00
C 259.11 109.91 258.80 110.87 258.00 111.00 Z"/>
</g>
<g fill="#6C6464" fill-opacity="1.00" stroke="None">
<path d="
M 48.00 115.00 
C 51.33 115.00 54.67 115.00 58.00 115.00
C 55.79 113.28 50.28 113.46 48.00 115.00 Z"/>
</g>
<g fill="#1E1B1C" fill-opacity="1.00" stroke="None">
<path d="
M 47.00 145.00 
C 50.74 146.05 54.22 146.00 58.00 145.00
C 72.90 141.85 73.84 116.99 58.00 115.00
C 54.67 115.00 51.33 115.00 48.00 115.00
C 32.55 117.50 32.18 142.07 47.00 145.00
M 53.00 116.00 
C 62.75 116.54 72.03 127.55 64.69 137.69 C 59.72 145.47 46.80 145.95 40.25 137.75 C 34.24 127.87 42.18 116.87 53.00 116.00 Z"/>
</g>
<g fill="#1B232B" fill-opacity="1.00" stroke="None">
<path d="
M 53.00 116.00 
C 42.18 116.87 34.24 127.87 40.25 137.75 C 46.80 145.95 59.72 145.47 64.69 137.69 C 72.03 127.55 62.75 116.54 53.00 116.00
M 60.00 132.00 
C 54.21 133.55 54.34 132.48 58.00 136.00
C 54.09 136.45 50.86 137.26 47.00 136.00
C 44.94 131.58 45.31 128.27 48.00 124.00
C 54.18 121.69 60.47 124.71 60.00 132.00 Z"/>
</g>
<g fill="#E9CECD" fill-opacity="0.04" stroke="None">
<path d="
M 258.00 294.00 
C 260.96 287.08 257.03 276.85 260.00 270.00
C 260.00 231.67 260.00 193.33 260.00 155.00
C 260.00 144.00 260.00 133.00 260.00 122.00
C 257.60 178.41 260.13 237.12 258.00 294.00 Z"/>
</g>
<g fill="#101A30" fill-opacity="1.00" stroke="None">
<path d="
M 60.00 132.00 
C 60.47 124.71 54.18 121.69 48.00 124.00
C 45.31 128.27 44.94 131.58 47.00 136.00
C 50.86 137.26 54.09 136.45 58.00 136.00
C 54.34 132.48 54.21 133.55 60.00 132.00 Z"/>
</g>
<g fill="#D0B0AC" fill-opacity="0.86" stroke="None">
<path d="
M 10.00 492.00 
C 12.33 374.99 10.33 255.84 11.00 138.00
C 11.00 138.00 10.00 137.96 10.00 138.00
C 10.00 256.00 10.00 374.00 10.00 492.00 Z"/>
</g>
<g fill="#696263" fill-opacity="1.00" stroke="None">
<path d="
M 58.00 145.00 
C 54.22 146.00 50.74 146.05 47.00 145.00
C 49.63 147.30 55.47 148.18 58.00 145.00 Z"/>
</g>
<g fill="#FFFFFF" fill-opacity="0.00" stroke="None">
<path d="
M 258.00 294.00 
C 258.00 302.33 258.00 310.67 258.00 319.00
C 260.88 322.53 257.14 329.40 260.00 333.00
C 260.00 312.00 260.00 291.00 260.00 270.00
C 257.03 276.85 260.96 287.08 258.00 294.00 Z"/>
</g>
<g fill="#FFFFFF" fill-opacity="0.00" stroke="None">
<path d="
M 258.00 341.00 
C 258.00 342.33 258.00 343.67 258.00 345.00
C 260.64 344.97 260.81 338.40 258.00 341.00 Z"/>
</g>
<g fill="#FFFFFF" fill-opacity="0.00" stroke="None">
<path d="
M 258.00 406.00 
C 258.00 405.96 259.00 406.00 259.00 406.00
C 258.38 400.49 260.26 393.75 258.00 389.00
C 258.00 394.67 258.00 400.33 258.00 406.00 Z"/>
</g>
<g fill="#F6D1D1" fill-opacity="0.03" stroke="None">
<path d="
M 258.00 434.00 
C 258.00 436.00 258.00 438.00 258.00 440.00
C 260.31 431.91 258.35 421.84 259.00 413.00
C 259.00 410.67 259.00 408.33 259.00 406.00
C 259.00 406.00 258.00 405.96 258.00 406.00
C 258.00 415.33 258.00 424.67 258.00 434.00 Z"/>
</g>
<g fill="#FEFDFC" fill-opacity="0.01" stroke="None">
<path d="
M 258.00 440.00 
C 259.93 448.92 258.62 458.69 259.00 468.00
C 259.00 467.96 260.00 468.00 260.00 468.00
C 259.34 449.82 261.33 430.43 259.00 413.00
C 258.35 421.84 260.31 431.91 258.00 440.00 Z"/>
</g>
<g fill="#BF9C95" fill-opacity="0.38" stroke="None">
<path d="
M 257.00 510.00 
C 258.89 508.74 258.05 505.20 260.00 504.00
C 260.00 501.33 260.00 498.67 260.00 496.00
C 257.69 487.58 259.65 477.18 259.00 468.00
C 258.62 458.69 259.93 448.92 258.00 440.00
C 258.00 438.00 258.00 436.00 258.00 434.00
C 255.67 458.35 257.67 484.83 257.00 510.00 Z"/>
</g>
<g fill="#F3D4CF" fill-opacity="0.04" stroke="None">
<path d="
M 260.00 496.00 
C 260.00 486.67 260.00 477.33 260.00 468.00
C 260.00 468.00 259.00 467.96 259.00 468.00
C 259.65 477.18 257.69 487.58 260.00 496.00 Z"/>
</g>
<g fill="#E9D4CF" fill-opacity="0.10" stroke="None">
<path d="
M 257.00 510.00 
C 255.22 514.22 252.47 522.83 247.00 522.00
C 245.15 526.08 239.95 526.10 237.00 528.00
C 249.39 527.61 258.88 515.63 260.00 504.00
C 258.05 505.20 258.89 508.74 257.00 510.00 Z"/>
</g>
<g fill="#CFB2AE" fill-opacity="0.65" stroke="None">
<path d="
M 12.00 510.00 
C 12.00 510.00 11.98 510.50 12.00 511.00
C 15.04 514.14 17.15 519.95 22.00 521.00
C 17.95 517.62 15.71 511.53 12.00 509.00
C 12.00 509.00 12.00 509.50 12.00 510.00 Z"/>
</g>
<g fill="#F5E0DD" fill-opacity="0.08" stroke="None">
<path d="
M 24.00 525.00 
C 24.09 524.11 23.13 523.80 23.00 523.00
C 23.09 522.11 22.13 521.80 22.00 521.00
C 17.15 519.95 15.04 514.14 12.00 511.00
C 13.20 517.29 18.88 521.65 24.00 525.00 Z"/>
</g>
<g fill="#D4B1AE" fill-opacity="0.54" stroke="None">
<path d="
M 39.00 529.00 
C 42.33 529.00 45.67 529.00 49.00 529.00
C 58.33 529.00 67.67 529.00 77.00 529.00
C 95.33 529.00 113.67 529.00 132.00 529.00
C 133.33 529.00 134.67 529.00 136.00 529.00
C 151.50 529.67 168.32 527.67 183.00 530.00
C 183.50 530.00 184.50 530.00 185.00 530.00
C 191.09 527.71 199.16 529.63 206.00 529.00
C 208.04 530.29 210.97 530.52 213.00 529.00
C 220.94 529.74 228.18 527.79 236.00 528.00
C 236.00 528.00 236.50 527.97 237.00 528.00
C 239.95 526.10 245.15 526.08 247.00 522.00
C 214.53 531.85 177.54 524.90 143.00 527.00 C 107.40 526.39 71.18 528.25 36.00 526.00
C 36.15 527.75 38.44 527.73 39.00 529.00 Z"/>
</g>
<g fill="#F7EFEC" fill-opacity="0.02" stroke="None">
<path d="
M 213.00 529.00 
C 219.78 531.37 229.33 529.65 236.00 528.00
C 228.18 527.79 220.94 529.74 213.00 529.00 Z"/>
</g>
<g fill="#FFFFFF" fill-opacity="0.01" stroke="None">
<path d="
M 49.00 530.00 
C 49.16 529.95 49.00 529.00 49.00 529.00
C 45.67 529.00 42.33 529.00 39.00 529.00
C 41.65 530.99 46.58 530.44 49.00 530.00 Z"/>
</g>
<g fill="#FDD9D9" fill-opacity="0.02" stroke="None">
<path d="
M 49.00 530.00 
C 58.33 530.00 67.67 530.00 77.00 530.00
C 76.96 530.00 77.00 529.00 77.00 529.00
C 67.67 529.00 58.33 529.00 49.00 529.00
C 49.00 529.00 49.16 529.95 49.00 530.00 Z"/>
</g>
<g fill="#FFFDFD" fill-opacity="0.01" stroke="None">
<path d="
M 77.00 530.00 
C 95.18 529.34 114.57 531.33 132.00 529.00
C 113.67 529.00 95.33 529.00 77.00 529.00
C 77.00 529.00 76.96 530.00 77.00 530.00 Z"/>
</g>
<g fill="#FFFEFE" fill-opacity="0.01" stroke="None">
<path d="
M 183.00 530.00 
C 168.32 527.67 151.50 529.67 136.00 529.00
C 150.68 531.33 167.50 529.33 183.00 530.00 Z"/>
</g>
<g fill="#FFFAFA" fill-opacity="0.01" stroke="None">
<path d="
M 185.00 530.00 
C 191.84 529.37 199.91 531.29 206.00 529.00
C 199.16 529.63 191.09 527.71 185.00 530.00 Z"/>
</g>
</svg>