<?xml version="1.0" encoding="utf-8"?>
<!-- Generator: Adobe Illustrator 26.3.1, SVG Export Plug-In . SVG Version: 6.00 Build 0)  -->
<svg version="1.1" id="Слой_1" xmlns="http://www.w3.org/2000/svg" xmlns:xlink="http://www.w3.org/1999/xlink" x="0px" y="0px"
	 viewBox="0 0 650 650" style="enable-background:new 0 0 650 650;" xml:space="preserve">
<style type="text/css">
	.st0{fill-rule:evenodd;clip-rule:evenodd;fill:#D9D9D9;}
	.st1{fill-rule:evenodd;clip-rule:evenodd;fill:#2E2F2F;}
	.st2{fill-rule:evenodd;clip-rule:evenodd;fill:#FFFFFF;}
	.st3{fill:#2E2F2F;}
	.st4{fill:#D9D9D9;}
</style>
<path class="st0" d="M409.5,80.5H238.7c-18,0-32.5,14.5-32.5,32.5v424.1c0,17.9,14.5,32.5,32.5,32.5h170.8c18,0,32.5-14.6,32.5-32.5
	V113C442,95,427.4,80.5,409.5,80.5z M439.2,538.6c0,16.3-13.2,29.5-29.5,29.5H238.4c-16.3,0-29.5-13.2-29.5-29.5V112.8
	c0-16.3,13.2-29.5,29.5-29.5h171.4c16.3,0,29.5,13.2,29.5,29.5V538.6z"/>
<path class="st1" d="M409.8,83.3H238.4c-16.3,0-29.5,13.2-29.5,29.5v425.8c0,16.3,13.2,29.5,29.5,29.5h171.4
	c16.3,0,29.5-13.2,29.5-29.5V112.8C439.2,96.5,426,83.3,409.8,83.3z M438.2,538.6c0,15.7-12.8,28.5-28.5,28.5H238.4
	c-15.7,0-28.5-12.8-28.5-28.5V112.8c0-15.7,12.8-28.5,28.5-28.5h171.4c15.7,0,28.5,12.8,28.5,28.5V538.6z"/>
<path class="st0" d="M409.8,84.3H238.4c-15.7,0-28.5,12.8-28.5,28.5v425.8c0,15.7,12.8,28.5,28.5,28.5h171.4
	c15.7,0,28.5-12.8,28.5-28.5V112.8C438.2,97,425.5,84.3,409.8,84.3z M433,536.7c0,13.5-11,24.5-24.5,24.5H239.6
	c-13.5,0-24.5-11-24.5-24.5V114.1c0-13.5,11-24.5,24.5-24.5h168.9c13.5,0,24.5,11,24.5,24.5V536.7z"/>
<path class="st1" d="M408.5,89.6H239.6c-13.5,0-24.5,11-24.5,24.5v422.6c0,13.5,11,24.5,24.5,24.5h168.9c13.5,0,24.5-11,24.5-24.5
	V114.1C433,100.6,422,89.6,408.5,89.6z M432,536.7c0,13-10.5,23.5-23.5,23.5H239.6c-13,0-23.5-10.5-23.5-23.5V114.1
	c0-13,10.5-23.5,23.5-23.5h168.9c13,0,23.5,10.5,23.5,23.5V536.7z"/>
<path class="st2" d="M408.5,90.6H239.6c-13,0-23.5,10.5-23.5,23.5v422.6c0,13,10.5,23.5,23.5,23.5h168.9c13,0,23.5-10.5,23.5-23.5
	V114.1C432,101.1,421.5,90.6,408.5,90.6z M324,106.6c-3.5,0-6.3-2.8-6.3-6.3s2.8-6.3,6.3-6.3s6.3,2.8,6.3,6.3S327.5,106.6,324,106.6
	z"/>
<path class="st1" d="M443.5,291.1l-0.5-0.3v-23.5l0.4-0.2c0.8-0.4,1.4-1.3,1.4-2.2v-60.6c0-0.9-0.5-1.8-1.4-2.2l-0.4-0.2v-89
	c0-18.5-15-33.5-33.5-33.5H238.7c-18.5,0-33.5,15-33.5,33.5V537c0,18.5,15,33.5,33.5,33.5h170.8c18.5,0,33.5-15,33.5-33.5V326.1
	l0.5-0.3c0.8-0.4,1.4-1.3,1.4-2.2v-30.3C444.9,292.4,444.2,291.6,443.5,291.1z M443,203.1c0.5,0.3,0.8,0.8,0.8,1.3V265
	c0,0.5-0.3,1-0.8,1.3V203.1z M442,537.1c0,17.9-14.5,32.5-32.5,32.5H238.7c-18,0-32.5-14.6-32.5-32.5V113c0-18,14.5-32.5,32.5-32.5
	h170.8c18,0,32.5,14.5,32.5,32.5V537.1z M443.9,323.7c0,0.6-0.3,1.1-0.8,1.3H443v-33.1h0.1c0.5,0.3,0.8,0.8,0.8,1.3V323.7z"/>
<path class="st3" d="M324,94.1c-3.5,0-6.3,2.8-6.3,6.3s2.8,6.3,6.3,6.3s6.3-2.8,6.3-6.3S327.5,94.1,324,94.1z M324,105.6
	c-2.9,0-5.3-2.4-5.3-5.3s2.4-5.3,5.3-5.3s5.3,2.4,5.3,5.3C329.4,103.3,327,105.6,324,105.6z"/>
<path class="st4" d="M329.4,100.3c0,2.9-2.4,5.3-5.3,5.3s-5.3-2.4-5.3-5.3s2.4-5.3,5.3-5.3C327,95.1,329.4,97.4,329.4,100.3z"/>
</svg>
